<?xml version="1.0" encoding="UTF-8"?>
<svg id="Layer_2" data-name="Layer 2" xmlns="http://www.w3.org/2000/svg" viewBox="0 0 1768.16 448.81">
  <defs>
    <style>
      .cls-1 {
        fill: #fff;
      }
    </style>
  </defs>
  <g id="Layer_1-2" data-name="Layer 1">
    <g>
      <path class="cls-1" d="M322.85,1.99c-82.71-20.79-166.89,125.62-217.22,235.17l-39.09-58.64L0,222.85l122.03,183.06,28.3-70.36c63.83-158.81,127-239.16,152.5-253.6,9.28,14.53,18.88,54.5,21.37,118.74h-68.81l-39.98,79.96h108.34c-1.11,24.52-3.06,51.17-6.13,79.96h80.31c8.17-81.25,9.11-156.19,2.44-214.51C390.46,59.74,365.14,12.61,322.85,1.99Z"/>
      <g>
        <path class="cls-1" d="M622.88,54.23l-105.76,302.2h64.32l18.13-54.4h120.45l18.13,54.4h64.76l-106.2-302.2h-73.83ZM618.56,246.34l41.44-123.47,41.44,123.47h-82.89Z"/>
        <path class="cls-1" d="M988.96,167.34c-15.11-20.29-38.42-32.81-69.07-32.81-61.3,0-107.5,50.08-107.5,110.52s46.19,110.52,107.5,110.52c30.65,0,53.96-12.52,69.07-32.81v23.31c0,34.11-21.59,53.1-56.56,53.1s-47.49-13.39-56.55-30.22l-47.49,27.2c18.99,34.97,56.12,52.66,102.32,52.66,56.98,0,112.68-31.95,112.68-102.74v-205.5h-54.4v26.77ZM928.52,304.19c-34.97,0-60.44-24.61-60.44-59.14s25.47-58.71,60.44-58.71,60.44,24.61,60.44,58.71-25.47,59.14-60.44,59.14Z"/>
        <rect class="cls-1" x="1093.86" y="140.57" width="55.69" height="215.85"/>
        <path class="cls-1" d="M1121.49,46.03c-18.56,0-34.11,15.97-34.11,34.54s15.54,34.11,34.11,34.11,34.54-15.55,34.54-34.11-15.54-34.54-34.54-34.54Z"/>
        <rect class="cls-1" x="1200.48" y="41.28" width="55.69" height="315.14"/>
        <path class="cls-1" d="M1409.85,134.53c-67.78,0-113.97,49.64-113.97,113.97s45.76,113.96,118.29,113.96c41.44,0,73.82-16.84,94.11-46.19l-44.9-25.91c-9.5,12.52-26.77,21.59-48.35,21.59-29.36,0-53.1-12.09-60.87-40.58h162.75c1.3-7.34,2.16-14.68,2.16-22.88,0-63.47-45.33-113.97-109.22-113.97ZM1353.3,228.21c6.48-27.63,26.77-43.6,56.56-43.6,23.31,0,46.62,12.52,53.53,43.6h-110.09Z"/>
        <path class="cls-1" d="M1768.16,248.5c0-63.47-45.33-113.97-109.22-113.97-67.78,0-113.97,49.64-113.97,113.97s45.76,113.96,118.29,113.96c41.44,0,73.82-16.84,94.11-46.19l-44.9-25.91c-9.5,12.52-26.77,21.59-48.35,21.59-29.36,0-53.1-12.09-60.87-40.58h162.75c1.3-7.34,2.16-14.68,2.16-22.88ZM1602.39,228.21c6.48-27.63,26.77-43.6,56.56-43.6,23.31,0,46.62,12.52,53.53,43.6h-110.09Z"/>
      </g>
    </g>
  </g>
</svg>